# xmcd
#
# Track frame offsets:
#	150
#	16802
#	34621
#	48601
#	61689
#	76295
#	93962
#	114311
#	125647
#	144311
#	164136
#	178254
#	199412
#	217391
#	236513
#
# Disc length: 3376 seconds
#
# Revision: 1
# Processed by: cddbd v1.5.2PL0 Copyright (c) Steve Scherf et al.
# Submitted via: audiograbber 1.83.01
#
DISCID=d60d2e0f
DTITLE=Allan, Gary - CB90257R
DYEAR=2007
DGENRE=Country
TTITLE0=Nothin On But The Radio
TTITLE1=Man To Man
TTITLE2=It Would Be You
TTITLE3=Her Man
TTITLE4=Right Where I Need To Be
TTITLE5=Life Ain't Always Beautiful
TTITLE6=Songs About Rain
TTITLE7=Living In A House Of Love
TTITLE8=Tough Little Boys
TTITLE9=No Man In His Wrong Heart
TTITLE10=I'll Take Today
TTITLE11=Smoke Rings In The Dark
TTITLE12=I'm Doing My Best
TTITLE13=Best I Ever Had
TTITLE14=Man Of Me
EXTD=
EXTT0=
EXTT1=
EXTT2=
EXTT3=
EXTT4=
EXTT5=
EXTT6=
EXTT7=
EXTT8=
EXTT9=
EXTT10=
EXTT11=
EXTT12=
EXTT13=
EXTT14=
PLAYORDER=
